# xmcd
#
# Track frame offsets:
#	150
#	17390
#	35275
#	55185
#	72197
#	96654
#	113900
#	133495
#	149690
#	166202
#	183547
#	199277
#	220262
#	239809
#	254680
#	271680
#
# Disc length: 3967
#
# Revision: 3
# Processed by: cddbd v1.5.1PL0 Copyright (c) Steve Scherf et al.
# Submitted via: EasyCDDAExtractor 5.1.0
# Normalized: r2:DSETVAR1
#
DISCID=fe0f7d10
DTITLE=Various Artist - Shag Spectacular
DYEAR=1995
DGENRE=Beach
TTITLE0=Edwin Starr - Release This Love
TTITLE1=PJ - Down For The Third Time
TTITLE2=Jean, Scherrie and Lynda (Formerly Of The Supremes) and The Originals - Stoned Love
TTITLE3=Frankie Gaye - Whats Goin On
TTITLE4=Jean, Scherrie and Lynda and The Originals - Back By Popular Demand
TTITLE5=Johnny Bristol - What Does It Take (To Win Your Love)
TTITLE6=Pat Lewis - Selfish One
TTITLE7=Mary Wells - Whats So Easy For Two Is So Hard For One
TTITLE8=Chico Leverete - Love Makes The World Go Round
TTITLE9=Ivy Jo Hunter - Running Through My Fingers
TTITLE10=Jean, Scherrie and Lynda The Originals - I'm Gonna Make You Love Me
TTITLE11=Contours - Look Out For The Stop Sign
TTITLE12=Marv Johnson - It's Magic Between Us
TTITLE13=James Ellis - If You Don't Want My Love
TTITLE14=Marv Johnson - Nothing Can Stop Me
TTITLE15=Johnny Bristol - Looking Through The Eyes Of A Fool
EXTD=
EXTT0=Edwin Starr\n
EXTT1=PJ\n
EXTT2=Jean, Scherrie and Lynda of the \nSupremes\n
EXTT3=Frankie Gaye\n
EXTT4=Jean, Scherrie and Lynda of the Supremes \nwith The Originals\n
EXTT5=Johnny Bristol\n
EXTT6=Pat Lewis\n
EXTT7=Mary Wells\n
EXTT8=Chico Leverete\n
EXTT9=Ivy Jo Hunter\n
EXTT10=Jean, Scherrie and Lynda of the Supremes \nwith the Originals\n
EXTT11=The Contours\n
EXTT12=Marv Johnson\n
EXTT13=James Ellis\n
EXTT14=Marv Johnson\n
EXTT15=Johnny Bristol\n
PLAYORDER=
